<?xml version="1.0" encoding="UTF-8"?>
<svg id="Capa_1" data-name="Capa 1" xmlns="http://www.w3.org/2000/svg" viewBox="0 0 1920 349.71">
  <defs>
    <style>
      .cls-1 {
        fill: #00897c;
      }

      .cls-2 {
        fill: #017a6b;
      }

      .cls-3 {
        fill: #00b080;
      }
    </style>
  </defs>
  <g>
    <polygon class="cls-1" points="1806.33 173.41 1954.87 349.71 1658.04 349.71 1806.33 173.41"/>
    <polygon class="cls-2" points="1806.79 349.71 1955.45 349.71 1806.9 173.41 1806.79 173.54 1806.79 349.71"/>
    <path class="cls-3" d="m1824.08,228.56c4.67,4.35,10.93,7.02,17.82,7.02,4.93,0,9.54-1.37,13.47-3.74l-49.05-58.21-48.35,57.48c4.17,2.82,9.21,4.47,14.62,4.47,6.41,0,12.28-2.31,16.83-6.15,4.55,3.83,10.42,6.15,16.83,6.15,6.89,0,13.15-2.67,17.82-7.02Z"/>
  </g>
  <g>
    <g>
      <polygon class="cls-1" points="331.02 50.86 582.82 349.71 79.67 349.71 331.02 50.86"/>
      <polygon class="cls-2" points="331.8 349.71 583.79 349.71 332 50.86 331.8 51.09 331.8 349.71"/>
      <path class="cls-3" d="m361.13,144.35c7.92,7.38,18.53,11.89,30.2,11.89,8.35,0,16.17-2.31,22.84-6.33l-83.14-98.68-81.95,97.44c7.08,4.78,15.61,7.57,24.79,7.57,10.87,0,20.82-3.92,28.53-10.42,7.71,6.5,17.66,10.42,28.53,10.42,11.67,0,22.28-4.52,30.2-11.89Z"/>
    </g>
    <g>
      <polygon class="cls-1" points="555.02 141.05 730.82 349.71 379.52 349.71 555.02 141.05"/>
      <polygon class="cls-2" points="555.56 349.71 731.5 349.71 555.7 141.05 555.56 141.22 555.56 349.71"/>
      <path class="cls-3" d="m576.03,206.33c5.53,5.15,12.94,8.31,21.09,8.31,5.83,0,11.29-1.62,15.94-4.42l-58.05-68.9-57.22,68.03c4.94,3.34,10.9,5.29,17.31,5.29,7.59,0,14.54-2.74,19.92-7.27,5.38,4.54,12.33,7.27,19.92,7.27,8.15,0,15.56-3.16,21.09-8.31Z"/>
    </g>
    <g>
      <polygon class="cls-1" points="936.92 57.72 1182.93 349.71 691.33 349.71 936.92 57.72"/>
      <polygon class="cls-2" points="937.68 349.71 1183.88 349.71 937.87 57.72 937.68 57.95 937.68 349.71"/>
      <path class="cls-3" d="m966.33,149.07c7.73,7.21,18.1,11.62,29.51,11.62,8.16,0,15.8-2.26,22.31-6.19l-81.23-96.41-80.07,95.2c6.91,4.67,15.25,7.4,24.22,7.4,10.62,0,20.34-3.83,27.88-10.18,7.53,6.35,17.26,10.18,27.88,10.18,11.4,0,21.77-4.42,29.51-11.62Z"/>
    </g>
    <g>
      <polygon class="cls-1" points="1415.13 3.5 1706.82 349.71 1123.94 349.71 1415.13 3.5"/>
      <polygon class="cls-2" points="1416.03 349.71 1707.95 349.71 1416.26 3.5 1416.03 3.77 1416.03 349.71"/>
      <path class="cls-3" d="m1450,111.81c9.17,8.54,21.46,13.78,34.98,13.78,9.68,0,18.73-2.68,26.46-7.34L1415.13,3.94l-94.94,112.88c8.2,5.54,18.08,8.78,28.72,8.78,12.59,0,24.12-4.54,33.05-12.07,8.93,7.53,20.46,12.07,33.05,12.07,13.52,0,25.82-5.24,34.98-13.78Z"/>
    </g>
    <g>
      <polygon class="cls-1" points="1154.06 168.45 1306.77 349.71 1001.6 349.71 1154.06 168.45"/>
      <polygon class="cls-2" points="1154.53 349.71 1307.36 349.71 1154.65 168.45 1154.53 168.6 1154.53 349.71"/>
      <path class="cls-3" d="m1172.31,225.16c4.8,4.47,11.24,7.21,18.32,7.21,5.07,0,9.81-1.4,13.85-3.84l-50.42-59.85-49.7,59.1c4.29,2.9,9.46,4.59,15.03,4.59,6.59,0,12.63-2.38,17.31-6.32,4.68,3.94,10.71,6.32,17.31,6.32,7.08,0,13.52-2.74,18.32-7.21Z"/>
    </g>
    <g>
      <polygon class="cls-1" points="482.9 226.34 586.84 349.71 379.13 349.71 482.9 226.34"/>
      <polygon class="cls-2" points="483.22 349.71 587.25 349.71 483.3 226.34 483.22 226.44 483.22 349.71"/>
      <path class="cls-3" d="m495.32,264.94c3.27,3.04,7.65,4.91,12.47,4.91,3.45,0,6.67-.96,9.43-2.61l-34.32-40.74-33.83,40.22c2.92,1.97,6.44,3.13,10.23,3.13,4.49,0,8.6-1.62,11.78-4.3,3.18,2.68,7.29,4.3,11.78,4.3,4.82,0,9.2-1.87,12.47-4.91Z"/>
    </g>
    <g>
      <polygon class="cls-1" points="764.53 103.48 971.99 349.71 557.42 349.71 764.53 103.48"/>
      <polygon class="cls-2" points="765.17 349.71 972.79 349.71 765.33 103.48 765.17 103.67 765.17 349.71"/>
      <path class="cls-3" d="m789.33,180.51c6.52,6.08,15.27,9.8,24.88,9.8,6.88,0,13.32-1.91,18.82-5.22l-68.5-81.3-67.52,80.28c5.83,3.94,12.86,6.24,20.42,6.24,8.96,0,17.16-3.23,23.51-8.58,6.35,5.35,14.55,8.58,23.51,8.58,9.62,0,18.36-3.72,24.88-9.8Z"/>
    </g>
    <g>
      <polygon class="cls-1" points="1029.19 154.95 1193.29 349.71 865.38 349.71 1029.19 154.95"/>
      <polygon class="cls-2" points="1029.7 349.71 1193.92 349.71 1029.83 154.95 1029.7 155.1 1029.7 349.71"/>
      <path class="cls-3" d="m1048.81,215.88c5.16,4.81,12.07,7.75,19.68,7.75,5.44,0,10.54-1.51,14.88-4.13l-54.18-64.31-53.41,63.5c4.61,3.12,10.17,4.94,16.15,4.94,7.08,0,13.57-2.56,18.59-6.79,5.02,4.23,11.51,6.79,18.59,6.79,7.61,0,14.52-2.95,19.68-7.75Z"/>
    </g>
    <g>
      <polygon class="cls-1" points="1295.44 145.34 1467.63 349.71 1123.55 349.71 1295.44 145.34"/>
      <polygon class="cls-2" points="1295.98 349.71 1468.3 349.71 1296.11 145.34 1295.98 145.5 1295.98 349.71"/>
      <path class="cls-3" d="m1316.03,209.28c5.41,5.04,12.67,8.13,20.65,8.13,5.71,0,11.06-1.58,15.62-4.33l-56.85-67.48-56.04,66.63c4.84,3.27,10.67,5.18,16.95,5.18,7.43,0,14.24-2.68,19.51-7.12,5.27,4.44,12.08,7.12,19.51,7.12,7.98,0,15.24-3.09,20.65-8.13Z"/>
    </g>
    <g>
      <polygon class="cls-1" points="1461.98 255.67 1541.22 349.71 1382.88 349.71 1461.98 255.67"/>
      <polygon class="cls-2" points="1462.23 349.71 1541.52 349.71 1462.29 255.67 1462.23 255.74 1462.23 349.71"/>
      <path class="cls-3" d="m1471.45,285.09c2.49,2.32,5.83,3.74,9.5,3.74,2.63,0,5.09-.73,7.19-1.99l-26.16-31.05-25.79,30.66c2.23,1.5,4.91,2.38,7.8,2.38,3.42,0,6.55-1.23,8.98-3.28,2.43,2.04,5.56,3.28,8.98,3.28,3.67,0,7.01-1.42,9.5-3.74Z"/>
    </g>
    <g>
      <polygon class="cls-1" points="1668.21 135.73 1848.49 349.71 1488.24 349.71 1668.21 135.73"/>
      <polygon class="cls-2" points="1668.77 349.71 1849.19 349.71 1668.91 135.73 1668.77 135.9 1668.77 349.71"/>
      <path class="cls-3" d="m1689.76,202.68c5.67,5.28,13.27,8.52,21.62,8.52,5.98,0,11.58-1.66,16.35-4.53l-59.53-70.65-58.68,69.76c5.07,3.42,11.17,5.42,17.75,5.42,7.78,0,14.91-2.81,20.43-7.46,5.52,4.65,12.65,7.46,20.43,7.46,8.36,0,15.96-3.24,21.62-8.52Z"/>
    </g>
    <g>
      <polygon class="cls-1" points="1881.03 211.68 1997.34 349.71 1764.93 349.71 1881.03 211.68"/>
      <polygon class="cls-2" points="1881.39 349.71 1997.79 349.71 1881.49 211.68 1881.39 211.78 1881.39 349.71"/>
      <path class="cls-3" d="m1894.94,254.86c3.66,3.41,8.56,5.49,13.95,5.49,3.86,0,7.47-1.07,10.55-2.93l-38.4-45.58-37.85,45.01c3.27,2.21,7.21,3.5,11.45,3.5,5.02,0,9.62-1.81,13.18-4.81,3.56,3,8.16,4.81,13.18,4.81,5.39,0,10.29-2.09,13.95-5.49Z"/>
    </g>
    <g>
      <polygon class="cls-1" points="131.75 100.58 341.66 349.71 -77.79 349.71 131.75 100.58"/>
      <polygon class="cls-2" points="132.4 349.71 342.47 349.71 132.57 100.58 132.4 100.77 132.4 349.71"/>
      <path class="cls-3" d="m156.85,178.52c6.6,6.15,15.44,9.92,25.18,9.92,6.96,0,13.48-1.93,19.04-5.28l-69.31-82.26-68.32,81.23c5.9,3.99,13.01,6.31,20.66,6.31,9.06,0,17.36-3.27,23.79-8.68,6.43,5.42,14.72,8.68,23.79,8.68,9.73,0,18.58-3.77,25.18-9.92Z"/>
    </g>
    <g>
      <polygon class="cls-1" points="330.92 217.08 442.67 349.71 219.36 349.71 330.92 217.08"/>
      <polygon class="cls-2" points="331.27 349.71 443.1 349.71 331.35 217.08 331.27 217.18 331.27 349.71"/>
      <path class="cls-3" d="m344.28,258.57c3.51,3.27,8.22,5.28,13.4,5.28,3.71,0,7.18-1.03,10.14-2.81l-36.9-43.79-36.37,43.24c3.14,2.12,6.93,3.36,11,3.36,4.82,0,9.24-1.74,12.66-4.62,3.42,2.88,7.84,4.62,12.66,4.62,5.18,0,9.89-2.01,13.4-5.28Z"/>
    </g>
  </g>
</svg>